<?xml version="1.0" encoding="UTF-8"?>
<svg width="16px" height="16px" viewBox="0 0 16 16" version="1.1" xmlns="http://www.w3.org/2000/svg" xmlns:xlink="http://www.w3.org/1999/xlink">
    <!-- Generator: Sketch 49.3 (51167) - http://www.bohemiancoding.com/sketch -->
    <title>location-icon-white</title>
    <desc>Created with Sketch.</desc>
    <defs></defs>
    <g id="location-icon" stroke="none" stroke-width="1" fill="none" fill-rule="evenodd">
        <path d="M7.499024,1 C7.463867,1 7.428711,1.003906 7.393555,1.015625 C3.897461,1.074218 1.069336,3.90625 1.014649,7.402343 C0.995117,7.472656 0.995117,7.550781 1.014649,7.621093 C1.073242,11.117187 3.905274,13.945312 7.401367,14.003906 C7.47168,14.019531 7.549805,14.019531 7.620117,14.003906 C11.116211,13.941406 13.944336,11.109375 14.00293,7.613281 C14.018555,7.542968 14.018555,7.464843 14.00293,7.394531 C13.94043,3.902343 11.116211,1.074218 7.624024,1.015625 C7.581055,1.003906 7.541992,1 7.499024,1 Z M7.006836,2.03125 L7.006836,3.007812 C7.00293,3.1875 7.100586,3.355468 7.25293,3.445312 C7.40918,3.539062 7.604492,3.539062 7.760742,3.445312 C7.913086,3.355468 8.010742,3.1875 8.006836,3.007812 L8.006836,2.03125 C10.647461,2.269531 12.745117,4.367187 12.979492,7.007812 L12.006836,7.007812 C11.827149,7.003906 11.65918,7.101562 11.569336,7.253906 C11.475586,7.410156 11.475586,7.605468 11.569336,7.761718 C11.65918,7.914062 11.827149,8.011718 12.006836,8.007812 L12.979492,8.007812 C12.745117,10.648437 10.647461,12.746093 8.006836,12.980468 L8.006836,12.007812 C8.010742,11.871093 7.956055,11.742187 7.862305,11.644531 C7.764649,11.550781 7.635742,11.496093 7.499024,11.5 C7.22168,11.503906 7.00293,11.730468 7.006836,12.007812 L7.006836,12.980468 C4.366211,12.746093 2.268555,10.648437 2.030274,8.007812 L3.006836,8.007812 C3.186524,8.011718 3.354492,7.914062 3.444336,7.761718 C3.538086,7.605468 3.538086,7.410156 3.444336,7.253906 C3.354492,7.101562 3.186524,7.003906 3.006836,7.007812 L2.030274,7.007812 C2.268555,4.367187 4.366211,2.269531 7.006836,2.03125 Z M10.006836,5.007812 L6.506836,6.507812 L5.006836,10.007812 L8.506836,8.507812 L10.006836,5.007812 Z" fill="#FFFFFF" fill-rule="nonzero"></path>
    </g>
</svg>