<?xml version="1.0" encoding="UTF-8"?>
<svg width="16px" height="16px" viewBox="0 0 16 16" version="1.1" xmlns="http://www.w3.org/2000/svg" xmlns:xlink="http://www.w3.org/1999/xlink">
    <!-- Generator: Sketch 49.3 (51167) - http://www.bohemiancoding.com/sketch -->
    <title>mail-icon-white</title>
    <desc>Created with Sketch.</desc>
    <defs></defs>
    <g id="mail-icon" stroke="none" stroke-width="1" fill="none" fill-rule="evenodd">
        <path d="M2.5,2 C1.675781,2 1,2.675781 1,3.5 L1,11.5 C1,12.324219 1.675781,13 2.5,13 L8,13 L8,12 L2.5,12 C2.21875,12 2,11.78125 2,11.5 L2,3.953125 L8,8.109375 L14,3.953125 L14,9 L15,9 L15,3.5 C15,2.675781 14.324219,2 13.5,2 L2.5,2 Z M2.5,3 L13.5,3 C13.535156,3 13.5625,3.011719 13.59375,3.019531 L8,6.890625 L2.40625,3.019531 C2.4375,3.011719 2.464844,3 2.5,3 Z M13,10 L13,12 L9,12 L9,13 L13,13 L13,15 L15.5,12.5 L13,10 Z" id="Shape" fill="#FFFFFF" fill-rule="nonzero"></path>
    </g>
</svg>