<?xml version="1.0" encoding="UTF-8"?>
<svg width="16px" height="16px" viewBox="0 0 16 16" version="1.1" xmlns="http://www.w3.org/2000/svg" xmlns:xlink="http://www.w3.org/1999/xlink">
    <!-- Generator: Sketch 49.3 (51167) - http://www.bohemiancoding.com/sketch -->
    <title>phone-icon-white</title>
    <desc>Created with Sketch.</desc>
    <defs></defs>
    <g id="phone-icon" stroke="none" stroke-width="1" fill="none" fill-rule="evenodd">
        <path d="M5.5,2 C4.675781,2 4,2.675781 4,3.5 L4,12.5 C4,13.324219 4.675781,14 5.5,14 L10.5,14 C11.324219,14 12,13.324219 12,12.5 L12,3.5 C12,2.675781 11.324219,2 10.5,2 L5.5,2 Z M5.5,3 L10.5,3 C10.78125,3 11,3.21875 11,3.5 L11,12.5 C11,12.78125 10.78125,13 10.5,13 L5.5,13 C5.21875,13 5,12.78125 5,12.5 L5,3.5 C5,3.21875 5.21875,3 5.5,3 Z M2,5 L2,11 L3,11 L3,5 L2,5 Z M13,5 L13,11 L14,11 L14,5 L13,5 Z M0,6 L0,10 L1,10 L1,6 L0,6 Z M15,6 L15,10 L16,10 L16,6 L15,6 Z M7,11 L7,12 L9,12 L9,11 L7,11 Z" id="Shape" fill="#FFFFFF" fill-rule="nonzero"></path>
    </g>
</svg>