<?xml version="1.0" encoding="UTF-8"?>
<svg width="32px" height="32px" viewBox="0 0 32 32" version="1.1" xmlns="http://www.w3.org/2000/svg" xmlns:xlink="http://www.w3.org/1999/xlink">
    <!-- Generator: Sketch 47.1 (45422) - http://www.bohemiancoding.com/sketch -->
    <title>location-icon</title>
    <desc>Created with Sketch.</desc>
    <defs></defs>
    <g id="Assets" stroke="none" stroke-width="1" fill="none" fill-rule="evenodd">
        <g id="location-icon" fill-rule="nonzero" fill="#FFFFFF">
            <path d="M16,2 C10.492188,2 6,6.492188 6,12 C6,13.546876 6.632812,15.242188 7.507812,17.03125 C8.382812,18.828126 9.523438,20.703126 10.671876,22.414062 C12.953126,25.84375 15.226562,28.632812 15.226562,28.632812 L16,29.585938 L16.773438,28.632812 C16.773438,28.632812 19.046876,25.84375 21.335938,22.414062 C22.476562,20.703126 23.617188,18.828126 24.492188,17.03125 C25.367188,15.242188 26,13.546876 26,12 C26,6.492188 21.507812,2 16,2 Z M16,4 C20.429688,4 24,7.570312 24,12 C24,12.9375 23.507812,14.492188 22.695312,16.15625 C21.882812,17.828126 20.773438,19.640626 19.671876,21.3125 C17.835938,24.0625 16.585938,25.578126 16,26.3125 C15.414062,25.578126 14.164062,24.0625 12.328126,21.3125 C11.226562,19.640626 10.117188,17.828126 9.304688,16.15625 C8.492188,14.492188 8,12.9375 8,12 C8,7.570312 11.570312,4 16,4 Z M16,7.796876 L12,10.46875 L12,16 L20,16 L20,10.46875 L16,7.796876 Z M16,10.203126 L18,11.53125 L18,14 L14,14 L14,11.53125 L16,10.203126 Z" id="Shape"></path>
        </g>
    </g>
</svg>